<svg xmlns="http://www.w3.org/2000/svg" viewBox="0 0 1200 630" role="img" aria-labelledby="title desc">
  <title id="title">Cheat Engine CLI</title>
  <desc id="desc">JSON-first process and memory inspection through the Cheat Engine ceserver protocol.</desc>
  <defs>
    <linearGradient id="background" x1="0" y1="0" x2="1" y2="1">
      <stop offset="0" stop-color="#07111f"/>
      <stop offset=".55" stop-color="#111827"/>
      <stop offset="1" stop-color="#0f766e"/>
    </linearGradient>
    <radialGradient id="glow" cx="80%" cy="20%" r="70%">
      <stop offset="0" stop-color="#2dd4bf" stop-opacity=".3"/>
      <stop offset="1" stop-color="#2dd4bf" stop-opacity="0"/>
    </radialGradient>
  </defs>
  <rect width="1200" height="630" fill="url(#background)"/>
  <rect width="1200" height="630" fill="url(#glow)"/>
  <g opacity=".12" stroke="#67e8f9">
    <path d="M0 100h1200M0 200h1200M0 300h1200M0 400h1200M0 500h1200"/>
    <path d="M100 0v630M200 0v630M300 0v630M400 0v630M500 0v630M600 0v630M700 0v630M800 0v630M900 0v630M1000 0v630M1100 0v630"/>
  </g>
  <rect x="86" y="92" width="210" height="210" rx="42" fill="#081520" stroke="#334155" stroke-width="6"/>
  <path d="M126 168l34 28-34 28" fill="none" stroke="#2dd4bf" stroke-width="16" stroke-linecap="round" stroke-linejoin="round"/>
  <path d="M184 230h56" fill="none" stroke="#e2e8f0" stroke-width="14" stroke-linecap="round"/>
  <g fill="#67e8f9">
    <rect x="202" y="150" width="18" height="18" rx="4"/>
    <rect x="232" y="150" width="18" height="18" rx="4" opacity=".4"/>
    <rect x="202" y="180" width="18" height="18" rx="4" opacity=".4"/>
    <rect x="232" y="180" width="18" height="18" rx="4"/>
  </g>
  <text x="86" y="394" fill="#f8fafc" font-family="ui-monospace, SFMono-Regular, Menlo, monospace" font-size="76" font-weight="700">Cheat Engine CLI</text>
  <text x="90" y="460" fill="#99f6e4" font-family="Inter, Arial, sans-serif" font-size="34">JSON-first ceserver process &amp; memory inspection</text>
  <text x="90" y="535" fill="#cbd5e1" font-family="Inter, Arial, sans-serif" font-size="25">Typed reads · exact scans · guarded writes · agent-native output</text>
  <rect x="924" y="490" width="190" height="58" rx="29" fill="#2dd4bf"/>
  <text x="1019" y="528" text-anchor="middle" fill="#06251f" font-family="ui-monospace, SFMono-Regular, Menlo, monospace" font-size="27" font-weight="700">cecli</text>
</svg>
